<?xml version="1.0" standalone="no"?>
<!DOCTYPE svg PUBLIC "-//W3C//DTD SVG 20010904//EN"
 "http://www.w3.org/TR/2001/REC-SVG-20010904/DTD/svg10.dtd">
<svg version="1.0" xmlns="http://www.w3.org/2000/svg"
 width="550.000000pt" height="550.000000pt" viewBox="0 0 550.000000 550.000000"
 preserveAspectRatio="xMidYMid meet">
<metadata>
Created by potrace 1.14, written by Peter Selinger 2001-2017
</metadata>
<g transform="translate(0.000000,550.000000) scale(0.100000,-0.100000)"
fill="#000000" stroke="none">
<path d="M2747 4775 c-9 -77 -15 -122 -27 -215 -6 -41 -13 -88 -15 -105 -6
-48 -35 -267 -40 -300 -2 -16 -7 -52 -10 -80 -4 -27 -8 -61 -10 -75 -2 -14 -6
-43 -9 -65 -8 -61 -33 -244 -51 -385 -6 -46 -13 -95 -20 -145 -3 -22 -8 -58
-11 -80 -4 -39 -199 -1505 -209 -1575 -14 -97 -125 -939 -125 -944 0 -3 -30
-6 -66 -6 l-65 0 5 38 c6 39 12 85 20 142 19 143 37 281 42 310 2 19 7 53 10
75 3 22 20 157 40 300 36 273 37 281 54 410 6 44 12 94 15 110 2 17 11 84 20
150 9 66 18 134 20 150 29 216 30 196 -5 276 -18 41 -44 101 -59 134 -15 33
-193 439 -396 902 -203 464 -370 841 -372 839 -2 -2 12 -106 31 -232 35 -229
113 -748 122 -814 3 -19 7 -46 9 -60 3 -14 7 -41 10 -60 17 -119 26 -180 45
-305 11 -76 22 -151 24 -165 14 -87 96 -638 112 -750 3 -19 7 -46 9 -60 2 -14
11 -72 20 -130 8 -58 22 -152 31 -210 9 -58 17 -116 19 -130 2 -14 22 -149 45
-300 23 -151 43 -288 46 -305 2 -16 13 -90 24 -164 11 -73 20 -137 20 -142 0
-5 -196 -7 -442 -5 -402 4 -1169 8 -1293 6 l-50 0 -1 -60 -1 -60 361 0 c198 0
548 -3 776 -5 228 -3 723 -7 1100 -10 794 -5 2312 -17 2448 -19 50 0 92 1 93
4 4 23 3 104 -1 110 -4 7 -723 16 -1428 19 l-154 1 6 38 c5 37 23 153 51 340
8 53 17 113 19 132 3 19 17 112 31 205 14 94 27 184 30 200 7 48 42 281 80
540 20 132 45 301 56 375 11 74 29 194 39 265 11 72 22 144 24 160 4 30 17
115 76 500 16 110 43 292 60 405 16 113 43 297 60 410 17 113 33 223 35 245
l5 40 -14 -30 c-34 -73 -25 -52 -500 -1139 -298 -681 -345 -794 -340 -825 2
-20 7 -49 9 -66 17 -132 27 -204 31 -230 4 -33 44 -333 59 -455 3 -19 7 -46 9
-60 3 -14 8 -47 11 -75 3 -27 7 -66 10 -85 3 -19 7 -53 10 -75 2 -22 18 -141
35 -265 16 -124 32 -241 35 -260 2 -19 11 -86 20 -148 21 -155 25 -142 -49
-142 l-63 0 -8 68 c-4 37 -8 74 -10 82 -1 8 -8 56 -14 105 -12 87 -16 119 -25
188 -3 17 -8 55 -11 82 -4 28 -13 97 -21 155 -8 58 -17 121 -19 140 -9 75 -27
207 -31 236 -3 17 -6 46 -8 65 -2 19 -11 88 -20 154 -24 171 -24 171 -36 265
-16 120 -18 136 -30 220 -5 41 -12 93 -15 115 -4 38 -13 102 -20 155 -2 14 -9
63 -15 110 -6 47 -13 99 -16 116 -3 17 -6 46 -8 65 -3 29 -15 116 -31 234 -3
17 -23 167 -45 335 -22 168 -42 319 -45 335 -2 17 -16 120 -30 230 -14 110
-28 214 -30 230 -2 17 -14 100 -25 185 -26 190 -25 188 -33 115z"/>
<path d="M597 3730 c28 -52 78 -148 112 -212 141 -271 182 -349 241 -463 34
-66 109 -208 165 -315 56 -107 137 -262 180 -345 43 -82 122 -233 175 -335 53
-102 137 -261 186 -355 168 -323 185 -353 179 -315 -17 113 -117 791 -121 820
-3 19 -9 60 -14 90 -5 30 -12 75 -15 100 -3 25 -10 70 -15 100 -5 30 -12 73
-15 95 -4 25 -17 52 -38 74 -61 66 -73 78 -167 181 -52 57 -102 110 -111 119
-8 9 -69 75 -134 146 -66 72 -126 137 -135 145 -8 8 -42 44 -74 80 -33 36 -87
94 -120 130 -34 36 -111 119 -172 185 -60 66 -121 131 -133 145 -16 17 -7 -6
26 -70z"/>
<path d="M4913 3769 c-54 -58 -84 -91 -201 -216 -56 -61 -110 -119 -120 -130
-9 -11 -67 -74 -128 -139 -61 -66 -122 -131 -135 -145 -56 -62 -233 -253 -345
-374 -128 -137 -122 -126 -139 -245 -2 -14 -27 -177 -54 -362 -28 -185 -53
-354 -56 -375 -22 -149 -47 -316 -55 -362 -6 -30 -9 -56 -7 -57 3 -3 89 158
267 501 176 338 299 571 335 640 23 44 86 166 140 270 54 105 101 195 105 200
4 6 56 105 115 220 59 116 115 224 125 240 10 17 55 102 100 190 46 88 87 166
93 173 23 29 -5 9 -40 -29z"/>
<path d="M21 2337 c9 -8 665 -533 683 -547 10 -8 33 -27 50 -41 17 -14 170
-137 341 -274 171 -136 328 -263 350 -280 198 -162 469 -375 472 -372 2 3 -1
35 -7 73 -11 70 -38 125 -303 628 l-84 160 -214 94 c-1320 579 -1306 573
-1288 559z"/>
<path d="M5365 2288 c-60 -27 -378 -167 -705 -310 -327 -143 -613 -269 -635
-279 -36 -17 -47 -32 -98 -131 -32 -62 -81 -158 -110 -213 -181 -342 -205
-393 -211 -440 -4 -28 -10 -60 -13 -72 -3 -13 -2 -23 1 -23 4 0 158 122 344
271 185 149 353 284 372 299 514 412 1176 943 1179 946 12 11 -24 -3 -124 -48z"/>
</g>
</svg>
